<svg xmlns="http://www.w3.org/2000/svg" width="24" height="24" viewBox="0 0 24 24" fill="none">
  <path d="M5.5 6.5C4.94772 6.5 4.5 6.94772 4.5 7.5C4.5 8.05228 4.94772 8.5 5.5 8.5H18.5C19.0523 8.5 19.5 8.05228 19.5 7.5C19.5 6.94772 19.0523 6.5 18.5 6.5H5.5Z" fill="#202124"/>
  <path d="M4.5 12.5C4.5 11.9477 4.94772 11.5 5.5 11.5H18.5C19.0523 11.5 19.5 11.9477 19.5 12.5C19.5 13.0523 19.0523 13.5 18.5 13.5H5.5C4.94772 13.5 4.5 13.0523 4.5 12.5Z" fill="#202124"/>
  <path d="M4.5 17.5C4.5 16.9477 4.94772 16.5 5.5 16.5H18.5C19.0523 16.5 19.5 16.9477 19.5 17.5C19.5 18.0523 19.0523 18.5 18.5 18.5H5.5C4.94772 18.5 4.5 18.0523 4.5 17.5Z" fill="#202124"/>
</svg>