<svg width="100" height="100" viewBox="0 0 100 100" fill="none" xmlns="http://www.w3.org/2000/svg">
<path d="M50.0003 71.6346L63.7837 57.8555L60.8337 54.9055L52.0837 63.6555V44.0721H47.917V63.6555L39.167 54.9055L36.217 57.8555L50.0003 71.6346ZM24.042 83.3346C22.1753 83.3346 20.4795 82.5721 18.9545 81.0471C17.4295 79.5194 16.667 77.8249 16.667 75.9638V31.1971C16.667 30.3832 16.7962 29.6194 17.0545 28.9055C17.3156 28.1888 17.7045 27.5291 18.2212 26.9263L24.7128 19.1263C25.3156 18.3152 26.0698 17.7027 26.9753 17.2888C27.8809 16.8749 28.8531 16.668 29.892 16.668H69.9503C70.9892 16.668 71.9753 16.8749 72.9087 17.2888C73.8392 17.7055 74.6059 18.318 75.2087 19.1263L81.7795 27.0846C82.2962 27.6874 82.685 28.361 82.9462 29.1055C83.2045 29.8471 83.3337 30.6249 83.3337 31.4388V75.9596C83.3337 77.8207 82.5712 79.5152 81.0462 81.043C79.5184 82.568 77.8239 83.3305 75.9628 83.3305L24.042 83.3346ZM22.417 28.368H77.5003L71.9587 21.718C71.6892 21.4485 71.3809 21.2346 71.0337 21.0763C70.6864 20.9152 70.3253 20.8346 69.9503 20.8346H29.967C29.5948 20.8346 29.2337 20.9152 28.8837 21.0763C28.5392 21.2346 28.2337 21.4485 27.967 21.718L22.417 28.368Z" fill="#B93B3B"/>
</svg>
