<svg width="13" height="13" viewBox="0 0 10 10" fill="none" xmlns="http://www.w3.org/2000/svg">
<path d="M1.70711 0.292894C1.31658 -0.0976312 0.683417 -0.0976312 0.292893 0.292894C-0.0976311 0.683418 -0.0976311 1.31658 0.292893 1.70711L3.58579 5L0.292893 8.29289C-0.0976311 8.68342 -0.0976311 9.31658 0.292893 9.70711C0.683417 10.0976 1.31658 10.0976 1.70711 9.70711L5 6.41421L8.29289 9.70711C8.68342 10.0976 9.31658 10.0976 9.70711 9.70711C10.0976 9.31658 10.0976 8.68342 9.70711 8.29289L6.41421 5L9.70711 1.70711C10.0976 1.31658 10.0976 0.683418 9.70711 0.292894C9.31658 -0.0976301 8.68342 -0.0976301 8.29289 0.292894L5 3.58579L1.70711 0.292894Z" fill="#484848"/>
</svg>
