<svg width="24" height="24" viewBox="0 0 24 24" fill="none" xmlns="http://www.w3.org/2000/svg">
<path d="M5 16C5.55229 16 6 16.4477 6 17V18H18V17C18 16.4477 18.4477 16 19 16C19.5523 16 20 16.4477 20 17V19C20 19.5523 19.5523 20 19 20H5C4.44772 20 4 19.5523 4 19L4 17C4 16.4477 4.44772 16 5 16Z" fill="white"/>
<path d="M12.7071 15.7071C12.3166 16.0976 11.6834 16.0976 11.2929 15.7071L6.2929 10.7071C5.90237 10.3166 5.90237 9.68343 6.2929 9.2929C6.68342 8.90238 7.31659 8.90238 7.70711 9.2929L11 12.5858L11 4C11 3.44771 11.4477 3 12 3C12.5523 3 13 3.44771 13 4L13 12.5858L16.2929 9.2929C16.6834 8.90238 17.3166 8.90238 17.7071 9.2929C18.0976 9.68343 18.0976 10.3166 17.7071 10.7071L12.7071 15.7071Z" fill="white"/>
</svg>
