<svg width="21" height="21" viewBox="0 0 21 21" fill="currentColor" xmlns="http://www.w3.org/2000/svg">
<path d="M18.6846 2.31542C18.3652 1.99591 17.9859 1.74246 17.5685 1.56954C17.1511 1.39662 16.7037 1.30762 16.2519 1.30762C15.8001 1.30762 15.3527 1.39662 14.9353 1.56954C14.5179 1.74246 14.1386 1.99591 13.8192 2.31542L3.48716 12.6474C2.99646 13.1384 2.64654 13.7522 2.47391 14.4245L1.33204 18.8687C1.30372 18.9792 1.30474 19.0953 1.33498 19.2054C1.36522 19.3154 1.42365 19.4157 1.5045 19.4963C1.58534 19.5768 1.6858 19.6349 1.79597 19.6648C1.90613 19.6947 2.02218 19.6953 2.13266 19.6667L6.57548 18.5261C7.24798 18.3538 7.86178 18.0038 8.3526 17.5129L18.6846 7.18085C19.0041 6.86141 19.2576 6.48215 19.4305 6.06474C19.6034 5.64733 19.6924 5.19994 19.6924 4.74813C19.6924 4.29632 19.6034 3.84894 19.4305 3.43153C19.2576 3.01412 19.0041 2.63486 18.6846 2.31542ZM14.7471 3.24335C15.1462 2.84426 15.6875 2.62005 16.2519 2.62005C16.8163 2.62005 17.3576 2.84426 17.7567 3.24335C18.1558 3.64245 18.38 4.18373 18.38 4.74813C18.38 5.31254 18.1558 5.85382 17.7567 6.25292L16.7342 7.27535L13.7247 4.26579L14.7471 3.24335ZM12.7967 5.19373L15.8063 8.20329L7.42466 16.5849C7.09966 16.9093 6.69352 17.1405 6.24866 17.2543L2.87948 18.1205L3.74573 14.7514C3.8587 14.3062 4.08999 13.8998 4.4151 13.5754L12.7967 5.19373Z" fill="currentColor"/>
</svg>
