<svg width="28" height="28" viewBox="0 0 28 28" fill="none" xmlns="http://www.w3.org/2000/svg">
<path d="M5.83341 23.3333C5.18908 23.3333 4.66675 22.811 4.66675 22.1667C4.66675 21.5223 5.18908 21 5.83341 21H22.1667C22.8111 21 23.3334 21.5223 23.3334 22.1667C23.3334 22.811 22.8111 23.3333 22.1667 23.3333H5.83341Z" fill="black"/>
<path d="M17.4674 6.45568C17.2813 6.27129 16.9792 6.27129 16.7927 6.45568L7.82014 15.322L6.20001 18.6265C6.05679 19.0708 5.90435 19.2903 6.24744 19.6295C6.59054 19.9686 6.81251 19.8179 7.26198 19.6764L10.5957 18.066L19.5775 9.20833C19.764 9.02439 19.764 8.72572 19.5775 8.54133L17.4674 6.45568Z" fill="black"/>
<path d="M18.3295 4.90406C18.1701 5.06158 18.1701 5.31745 18.3295 5.47498L20.5368 7.65671C20.6961 7.81469 20.9549 7.81469 21.1143 7.65671L21.5135 7.29051C22.1145 6.69591 22.1145 5.73253 21.5135 5.13793L20.9056 4.53741C20.3046 3.94326 19.3297 3.94326 18.7287 4.53741L18.3295 4.90406Z" fill="black"/>
</svg>
