<svg width="71" height="70" viewBox="0 0 71 70" fill="none" xmlns="http://www.w3.org/2000/svg">
<path d="M15.0834 46.6667C16.6942 46.6667 18.0001 47.9725 18.0001 49.5833V52.5H53.0001V49.5833C53.0001 47.9725 54.3059 46.6667 55.9167 46.6667C57.5276 46.6667 58.8334 47.9725 58.8334 49.5833V55.4167C58.8334 57.0275 57.5276 58.3333 55.9167 58.3333H15.0834C13.4726 58.3333 12.1667 57.0275 12.1667 55.4167L12.1667 49.5833C12.1667 47.9725 13.4726 46.6667 15.0834 46.6667Z" fill="#006867"/>
<path d="M37.5625 45.8124C36.4235 46.9514 34.5767 46.9515 33.4377 45.8124L18.8544 31.2291C17.7153 30.0901 17.7153 28.2433 18.8544 27.1043C19.9934 25.9653 21.8401 25.9653 22.9792 27.1043L32.5834 36.7086L32.5834 11.6667C32.5834 10.0558 33.8892 8.75 35.5001 8.75C37.1109 8.75 38.4167 10.0558 38.4167 11.6667L38.4167 36.7086L48.021 27.1043C49.1601 25.9653 51.0068 25.9653 52.1458 27.1043C53.2849 28.2433 53.2849 30.0901 52.1458 31.2291L37.5625 45.8124Z" fill="#006867"/>
</svg>
