<svg width="54" height="54" viewBox="0 0 54 54" fill="none" xmlns="http://www.w3.org/2000/svg">
<path fill-rule="evenodd" clip-rule="evenodd" d="M26.9999 53.6663C41.7275 53.6663 53.6666 41.7273 53.6666 26.9997C53.6666 12.2721 41.7275 0.333008 26.9999 0.333008C12.2723 0.333008 0.333252 12.2721 0.333252 26.9997C0.333252 41.7273 12.2723 53.6663 26.9999 53.6663Z" fill="#006867"/>
<path fill-rule="evenodd" clip-rule="evenodd" d="M34.3972 18.2511C35.5472 16.8136 37.6449 16.5805 39.0824 17.7306C40.5199 18.8806 40.753 20.9782 39.603 22.4158L26.2696 39.0824C25.0286 40.6338 22.7145 40.762 21.3097 39.3571L14.6431 32.6905C13.3413 31.3887 13.3413 29.2782 14.6431 27.9764C15.9448 26.6747 18.0554 26.6747 19.3571 27.9764L23.3904 32.0097L34.3972 18.2511Z" fill="#EEF7F7"/>
</svg>
