<svg width="60" height="60" viewBox="0 0 60 60" fill="none" xmlns="http://www.w3.org/2000/svg">
<circle cx="30.0003" cy="29.9993" r="29.3333" fill="#006867"/>
<path d="M25.417 22.6658C25.417 20.0995 27.7182 18.082 30.0003 18.082C32.2824 18.082 34.5837 20.0995 34.5837 22.6658C34.5837 23.9898 34.2689 24.6833 33.9412 25.1476C33.5429 25.7118 32.985 26.1564 32.017 26.8825L31.9202 26.955C31.0586 27.6002 29.8404 28.5125 28.8995 29.8456C27.8522 31.3292 27.2503 33.1565 27.2503 35.4991C27.2503 37.0179 28.4815 38.2491 30.0003 38.2491C31.5191 38.2491 32.7503 37.0179 32.7503 35.4991C32.7503 34.1751 33.0651 33.4816 33.3928 33.0173C33.7911 32.4531 34.3489 32.0085 35.317 31.2825L35.4137 31.21C36.2754 30.5647 37.4935 29.6524 38.4345 28.3194C39.4818 26.8358 40.0837 25.0084 40.0837 22.6658C40.0837 16.8003 35.0516 12.582 30.0003 12.582C24.9491 12.582 19.917 16.8003 19.917 22.6658C19.917 24.1846 21.1482 25.4158 22.667 25.4158C24.1858 25.4158 25.417 24.1846 25.417 22.6658Z" fill="white"/>
<path d="M30.0003 48.3325C32.0254 48.3325 33.667 46.6909 33.667 44.6658C33.667 42.6408 32.0254 40.9991 30.0003 40.9991C27.9753 40.9991 26.3337 42.6408 26.3337 44.6658C26.3337 46.6909 27.9753 48.3325 30.0003 48.3325Z" fill="white"/>
</svg>
