<svg width="26" height="24" viewBox="0 0 26 24" fill="none" xmlns="http://www.w3.org/2000/svg">
<rect x="0.5" width="25" height="24" rx="12" fill="#006867"/>
<path d="M7.3125 15.4412C7.76123 15.4412 8.125 15.7835 8.125 16.2059V16.9706H17.875V16.2059C17.875 15.7835 18.2388 15.4412 18.6875 15.4412C19.1362 15.4412 19.5 15.7835 19.5 16.2059V17.7353C19.5 18.1576 19.1362 18.5 18.6875 18.5H7.3125C6.86377 18.5 6.5 18.1576 6.5 17.7353L6.5 16.2059C6.5 15.7835 6.86377 15.4412 7.3125 15.4412Z" fill="white"/>
<path d="M13.5745 15.2172C13.2572 15.5158 12.7428 15.5158 12.4255 15.2172L8.36298 11.3937C8.04568 11.095 8.04568 10.6109 8.36298 10.3122C8.68028 10.0136 9.19473 10.0136 9.51203 10.3122L12.1875 12.8303L12.1875 6.26471C12.1875 5.84237 12.5513 5.5 13 5.5C13.4487 5.5 13.8125 5.84237 13.8125 6.26471L13.8125 12.8303L16.488 10.3122C16.8053 10.0136 17.3197 10.0136 17.637 10.3122C17.9543 10.6109 17.9543 11.095 17.637 11.3937L13.5745 15.2172Z" fill="white"/>
</svg>
