<svg width="49" height="64" viewBox="0 0 49 64" fill="none" xmlns="http://www.w3.org/2000/svg">
<path d="M24.3987 17.0587C24.3987 17.0587 15.7503 17.9552 11.2221 14.0265C6.69403 10.0949 7.72621 2.58608 7.72621 2.58608C7.72621 2.58608 16.3746 1.6896 20.9056 5.6183C25.4337 9.54994 24.3987 17.0587 24.3987 17.0587Z" stroke="#006867" stroke-width="4" stroke-linecap="round" stroke-linejoin="round"/>
<path d="M44.1875 37.6544C44.9334 37.6544 45.6488 37.3458 46.1762 36.7963C46.7037 36.2469 47 35.5017 47 34.7247V28.8654C47 28.0884 46.7037 27.3432 46.1762 26.7938C45.6488 26.2443 44.9334 25.9357 44.1875 25.9357H4.8125C4.06658 25.9357 3.35121 26.2443 2.82376 26.7938C2.29632 27.3432 2 28.0884 2 28.8654V34.7247C2 35.5017 2.29632 36.2469 2.82376 36.7963C3.35121 37.3458 4.06658 37.6544 4.8125 37.6544M44.1875 37.6544H4.8125M44.1875 37.6544L38.5625 61.0919H10.4375L4.8125 37.6544M24.6012 17.0587C24.6012 17.0587 33.2497 17.9552 37.7778 14.0265C42.3059 10.0949 41.2737 2.58608 41.2737 2.58608C41.2737 2.58608 32.6253 1.6896 28.0972 5.6183C23.5691 9.54994 24.6012 17.0587 24.6012 17.0587Z" stroke="#006867" stroke-width="4" stroke-linecap="round" stroke-linejoin="round"/>
</svg>
