<svg width="54" height="55" viewBox="0 0 54 55" fill="none" xmlns="http://www.w3.org/2000/svg">
<circle cx="26.9999" cy="27.4997" r="26.6667" fill="#B93B3B"/>
<path d="M22.8333 20.8331C22.8333 18.5001 24.9253 16.666 26.9999 16.666C29.0745 16.666 31.1666 18.5001 31.1666 20.8331C31.1666 22.0368 30.8804 22.6672 30.5825 23.0893C30.2204 23.6022 29.7133 24.0064 28.8333 24.6664L28.7453 24.7323C27.962 25.3189 26.8546 26.1483 25.9992 27.3601C25.0471 28.7089 24.4999 30.3701 24.4999 32.4998C24.4999 33.8805 25.6192 34.9998 26.9999 34.9998C28.3806 34.9998 29.4999 33.8805 29.4999 32.4998C29.4999 31.2961 29.7861 30.6656 30.084 30.2435C30.4461 29.7306 30.9532 29.3265 31.8333 28.6664L31.9212 28.6005C32.7045 28.0139 33.8119 27.1845 34.6673 25.9727C35.6194 24.624 36.1666 22.9628 36.1666 20.8331C36.1666 15.5008 31.592 11.666 26.9999 11.666C22.4079 11.666 17.8333 15.5008 17.8333 20.8331C17.8333 22.2138 18.9525 23.3331 20.3333 23.3331C21.714 23.3331 22.8333 22.2138 22.8333 20.8331Z" fill="white"/>
<path d="M26.9999 44.1664C28.8409 44.1664 30.3333 42.674 30.3333 40.8331C30.3333 38.9921 28.8409 37.4998 26.9999 37.4998C25.159 37.4998 23.6666 38.9921 23.6666 40.8331C23.6666 42.674 25.159 44.1664 26.9999 44.1664Z" fill="white"/>
</svg>
