<svg viewBox="0 0 24 24" fill="none" xmlns="http://www.w3.org/2000/svg">
<path fill-rule="evenodd" clip-rule="evenodd" d="M14.3853 15.4463C13.0375 16.5232 11.3284 17.0432 9.60922 16.8994C7.88999 16.7556 6.29108 15.9589 5.14088 14.673C3.99068 13.3872 3.3765 11.7097 3.42449 9.98511C3.47248 8.26054 4.17898 6.61981 5.39891 5.39988C6.61883 4.17996 8.25956 3.47345 9.98413 3.42547C11.7087 3.37748 13.3862 3.99166 14.6721 5.14186C15.9579 6.29206 16.7546 7.89097 16.8984 9.6102C17.0422 11.3294 16.5222 13.0385 15.4453 14.3863L20.6013 19.5413C20.675 19.61 20.7341 19.6928 20.7751 19.7848C20.8161 19.8768 20.8381 19.9761 20.8399 20.0768C20.8417 20.1775 20.8232 20.2775 20.7855 20.3709C20.7477 20.4643 20.6916 20.5491 20.6204 20.6203C20.5492 20.6916 20.4643 20.7477 20.3709 20.7854C20.2775 20.8232 20.1775 20.8417 20.0768 20.8399C19.9761 20.8381 19.8768 20.8161 19.7848 20.7751C19.6928 20.7341 19.61 20.675 19.5413 20.6013L14.3853 15.4463ZM6.45933 13.8843C5.72537 13.1503 5.22549 12.2151 5.02284 11.1971C4.8202 10.179 4.92391 9.12374 5.32084 8.16461C5.71778 7.20547 6.39014 6.38553 7.25295 5.80841C8.11575 5.23129 9.13027 4.92289 10.1683 4.92219C11.2063 4.92149 12.2213 5.22853 13.0848 5.80449C13.9484 6.38045 14.6219 7.19948 15.0201 8.15808C15.4183 9.11668 15.5235 10.1718 15.3222 11.1901C15.1209 12.2085 14.6223 13.1443 13.8893 13.8793L13.8843 13.8843L13.8793 13.8883C12.8944 14.8709 11.5598 15.4224 10.1685 15.4217C8.77725 15.4209 7.44318 14.868 6.45933 13.8843Z" fill="black"/>
</svg>
