<svg width="29" height="23" viewBox="0 0 29 23" fill="none" xmlns="http://www.w3.org/2000/svg">
<path d="M3.46721 22.7553C2.71541 22.7553 2.07206 22.4878 1.53714 21.9529C1.00222 21.418 0.73431 20.7742 0.733398 20.0215V3.61858C0.733398 2.86678 1.00131 2.22342 1.53714 1.68851C2.07297 1.15359 2.71632 0.885677 3.46721 0.884766H25.3377C26.0895 0.884766 26.7333 1.15268 27.2692 1.68851C27.805 2.22433 28.0724 2.86769 28.0715 3.61858V20.0215C28.0715 20.7733 27.8041 21.4171 27.2692 21.9529C26.7342 22.4887 26.0904 22.7562 25.3377 22.7553H3.46721ZM14.4025 13.1869L3.46721 6.35239V20.0215H25.3377V6.35239L14.4025 13.1869ZM14.4025 10.4531L25.3377 3.61858H3.46721L14.4025 10.4531ZM3.46721 6.35239V3.61858V20.0215V6.35239Z" fill="#202124"/>
</svg>
