<svg width="40" height="40" viewBox="0 0 40 40" fill="none" xmlns="http://www.w3.org/2000/svg">
<rect width="40" height="40" rx="20" fill="#006867"/>
<path d="M20 17C19.2044 17 18.4413 17.3161 17.8787 17.8787C17.3161 18.4413 17 19.2044 17 20C17 20.7956 17.3161 21.5587 17.8787 22.1213C18.4413 22.6839 19.2044 23 20 23C20.7956 23 21.5587 22.6839 22.1213 22.1213C22.6839 21.5587 23 20.7956 23 20C23 19.2044 22.6839 18.4413 22.1213 17.8787C21.5587 17.3161 20.7956 17 20 17ZM20 25C18.6739 25 17.4021 24.4732 16.4645 23.5355C15.5268 22.5979 15 21.3261 15 20C15 18.6739 15.5268 17.4021 16.4645 16.4645C17.4021 15.5268 18.6739 15 20 15C21.3261 15 22.5979 15.5268 23.5355 16.4645C24.4732 17.4021 25 18.6739 25 20C25 21.3261 24.4732 22.5979 23.5355 23.5355C22.5979 24.4732 21.3261 25 20 25ZM20 12.5C15 12.5 10.73 15.61 9 20C10.73 24.39 15 27.5 20 27.5C25 27.5 29.27 24.39 31 20C29.27 15.61 25 12.5 20 12.5Z" fill="white"/>
</svg>
