<svg width="57" height="61" viewBox="0 0 57 61" fill="none" xmlns="http://www.w3.org/2000/svg">
<path d="M42.7497 36.5718C44.3694 36.5718 45.9228 37.2152 47.0681 38.3605C48.2134 39.5058 48.8569 41.0592 48.8569 42.6789V44.1345C48.8569 51.4162 40.2865 56.9289 28.4997 56.9289C16.7129 56.9289 8.14258 51.7032 8.14258 44.1345V42.6789C8.14258 41.0592 8.78601 39.5058 9.93132 38.3605C11.0766 37.2152 12.63 36.5718 14.2497 36.5718H42.7497ZM42.7497 39.6253H14.2497C13.491 39.6253 12.7594 39.9078 12.1975 40.4177C11.6356 40.9277 11.2837 41.6285 11.2104 42.3837L11.1961 42.6789V44.1345C11.1961 49.578 18.0952 53.8753 28.4997 53.8753C38.5277 53.8753 45.5081 49.5902 45.7952 44.4622L45.8033 44.1345V42.6789C45.8033 41.9202 45.5208 41.1886 45.0109 40.6267C44.501 40.0648 43.8001 39.7129 43.0449 39.6396L42.7497 39.6253ZM28.4997 8.07178C30.1037 8.07178 31.692 8.38771 33.1739 9.00153C34.6558 9.61536 36.0023 10.5151 37.1365 11.6493C38.2707 12.7835 39.1704 14.13 39.7843 15.6119C40.3981 17.0938 40.714 18.6821 40.714 20.2861C40.714 21.8901 40.3981 23.4784 39.7843 24.9603C39.1704 26.4422 38.2707 27.7887 37.1365 28.9229C36.0023 30.0571 34.6558 30.9568 33.1739 31.5706C31.692 32.1844 30.1037 32.5003 28.4997 32.5003C25.2603 32.5003 22.1535 31.2135 19.8629 28.9229C17.5723 26.6322 16.2854 23.5255 16.2854 20.2861C16.2854 17.0466 17.5723 13.9399 19.8629 11.6493C22.1535 9.35864 25.2603 8.07178 28.4997 8.07178ZM28.4997 11.1253C26.0702 11.1253 23.7401 12.0905 22.0221 13.8085C20.3042 15.5264 19.339 17.8565 19.339 20.2861C19.339 22.7156 20.3042 25.0457 22.0221 26.7637C23.7401 28.4816 26.0702 29.4468 28.4997 29.4468C30.9293 29.4468 33.2594 28.4816 34.9773 26.7637C36.6953 25.0457 37.6604 22.7156 37.6604 20.2861C37.6604 17.8565 36.6953 15.5264 34.9773 13.8085C33.2594 12.0905 30.9293 11.1253 28.4997 11.1253Z" fill="#6C6C6C"/>
<mask id="path-2-outside-1_1_14" maskUnits="userSpaceOnUse" x="30" y="0" width="20" height="20" fill="black">
<rect fill="white" x="30" width="20" height="20"/>
<path d="M42.456 9.4L41.736 10.136C41.16 10.712 40.8 11.2 40.8 12.4H39.2V12C39.2 11.112 39.56 10.312 40.136 9.736L41.128 8.728C41.424 8.44 41.6 8.04 41.6 7.6C41.6 7.17565 41.4314 6.76869 41.1314 6.46863C40.8313 6.16857 40.4243 6 40 6C39.5757 6 39.1687 6.16857 38.8686 6.46863C38.5686 6.76869 38.4 7.17565 38.4 7.6H36.8C36.8 6.75131 37.1371 5.93737 37.7373 5.33726C38.3374 4.73714 39.1513 4.4 40 4.4C40.8487 4.4 41.6626 4.73714 42.2627 5.33726C42.8629 5.93737 43.2 6.75131 43.2 7.6C43.1988 8.27459 42.9315 8.92146 42.456 9.4ZM40.8 15.6H39.2V14H40.8M40 2C38.9494 2 37.9091 2.20693 36.9385 2.60896C35.9679 3.011 35.086 3.60028 34.3431 4.34315C32.8429 5.84344 32 7.87827 32 10C32 12.1217 32.8429 14.1566 34.3431 15.6569C35.086 16.3997 35.9679 16.989 36.9385 17.391C37.9091 17.7931 38.9494 18 40 18C42.1217 18 44.1566 17.1571 45.6569 15.6569C47.1571 14.1566 48 12.1217 48 10C48 5.576 44.4 2 40 2Z"/>
</mask>
<path d="M42.456 9.4L41.736 10.136C41.16 10.712 40.8 11.2 40.8 12.4H39.2V12C39.2 11.112 39.56 10.312 40.136 9.736L41.128 8.728C41.424 8.44 41.6 8.04 41.6 7.6C41.6 7.17565 41.4314 6.76869 41.1314 6.46863C40.8313 6.16857 40.4243 6 40 6C39.5757 6 39.1687 6.16857 38.8686 6.46863C38.5686 6.76869 38.4 7.17565 38.4 7.6H36.8C36.8 6.75131 37.1371 5.93737 37.7373 5.33726C38.3374 4.73714 39.1513 4.4 40 4.4C40.8487 4.4 41.6626 4.73714 42.2627 5.33726C42.8629 5.93737 43.2 6.75131 43.2 7.6C43.1988 8.27459 42.9315 8.92146 42.456 9.4ZM40.8 15.6H39.2V14H40.8M40 2C38.9494 2 37.9091 2.20693 36.9385 2.60896C35.9679 3.011 35.086 3.60028 34.3431 4.34315C32.8429 5.84344 32 7.87827 32 10C32 12.1217 32.8429 14.1566 34.3431 15.6569C35.086 16.3997 35.9679 16.989 36.9385 17.391C37.9091 17.7931 38.9494 18 40 18C42.1217 18 44.1566 17.1571 45.6569 15.6569C47.1571 14.1566 48 12.1217 48 10C48 5.576 44.4 2 40 2Z" fill="#6C6C6C"/>
<path d="M42.456 9.4L41.0373 7.99033L41.0318 7.99585L41.0263 8.00141L42.456 9.4ZM41.736 10.136L43.1502 11.5502L43.158 11.5424L43.1657 11.5346L41.736 10.136ZM40.8 12.4V14.4H42.8V12.4H40.8ZM39.2 12.4H37.2V14.4H39.2V12.4ZM40.136 9.736L41.5502 11.1502L41.5559 11.1446L41.5615 11.1389L40.136 9.736ZM41.128 8.728L39.7333 7.29455L39.7177 7.30968L39.7025 7.32515L41.128 8.728ZM40 6V4V6ZM38.4 7.6V9.6H40.4V7.6H38.4ZM36.8 7.6H34.8V9.6H36.8V7.6ZM40 4.4V2.4V4.4ZM43.2 7.6L45.2 7.60342V7.6H43.2ZM39.2 15.6H37.2V17.6H39.2V15.6ZM39.2 14V12H37.2V14H39.2ZM40 2V4V2ZM32 10H30H32ZM40 18V20V18ZM41.0263 8.00141L40.3063 8.73741L43.1657 11.5346L43.8857 10.7986L41.0263 8.00141ZM40.3218 8.72179C39.9925 9.05107 39.5563 9.5157 39.2426 10.1819C38.9214 10.8639 38.8 11.5962 38.8 12.4H42.8C42.8 12.0038 42.8586 11.8921 42.8614 11.8861C42.8717 11.8643 42.9035 11.7969 43.1502 11.5502L40.3218 8.72179ZM40.8 10.4H39.2V14.4H40.8V10.4ZM41.2 12.4V12H37.2V12.4H41.2ZM41.2 12C41.2 11.6638 41.3339 11.3665 41.5502 11.1502L38.7218 8.32179C37.7861 9.2575 37.2 10.5602 37.2 12H41.2ZM41.5615 11.1389L42.5535 10.1309L39.7025 7.32515L38.7105 8.33315L41.5615 11.1389ZM42.5227 10.1615C43.2025 9.50005 43.6 8.5844 43.6 7.6H39.6C39.6 7.4956 39.6455 7.37995 39.7333 7.29455L42.5227 10.1615ZM43.6 7.6C43.6 6.64522 43.2207 5.72955 42.5456 5.05442L39.7172 7.88284C39.6421 7.80783 39.6 7.70609 39.6 7.6H43.6ZM42.5456 5.05442C41.8705 4.37928 40.9548 4 40 4V8C39.8939 8 39.7922 7.95786 39.7172 7.88284L42.5456 5.05442ZM40 4C39.0452 4 38.1295 4.37928 37.4544 5.05442L40.2828 7.88284C40.2078 7.95786 40.1061 8 40 8V4ZM37.4544 5.05442C36.7793 5.72955 36.4 6.64522 36.4 7.6H40.4C40.4 7.70609 40.3579 7.80783 40.2828 7.88284L37.4544 5.05442ZM38.4 5.6H36.8V9.6H38.4V5.6ZM38.8 7.6C38.8 7.28174 38.9264 6.97652 39.1515 6.75147L36.323 3.92304C35.3479 4.89823 34.8 6.22087 34.8 7.6H38.8ZM39.1515 6.75147C39.3765 6.52643 39.6817 6.4 40 6.4V2.4C38.6209 2.4 37.2982 2.94786 36.323 3.92304L39.1515 6.75147ZM40 6.4C40.3183 6.4 40.6235 6.52643 40.8485 6.75147L43.677 3.92304C42.7018 2.94786 41.3791 2.4 40 2.4V6.4ZM40.8485 6.75147C41.0736 6.97652 41.2 7.28174 41.2 7.6H45.2C45.2 6.22087 44.6521 4.89823 43.677 3.92304L40.8485 6.75147ZM41.2 7.59658C41.1998 7.74415 41.1413 7.88565 41.0373 7.99033L43.8747 10.8097C44.7217 9.95727 45.1979 8.80503 45.2 7.60342L41.2 7.59658ZM40.8 13.6H39.2V17.6H40.8V13.6ZM41.2 15.6V14H37.2V15.6H41.2ZM39.2 16H40.8V12H39.2V16ZM40 0C38.6868 0 37.3864 0.258658 36.1732 0.761205L37.7039 4.45672C38.4319 4.15519 39.2121 4 40 4V0ZM36.1732 0.761205C34.9599 1.26375 33.8575 2.00035 32.9289 2.92893L35.7574 5.75736C36.3145 5.20021 36.9759 4.75825 37.7039 4.45672L36.1732 0.761205ZM32.9289 2.92893C31.0536 4.8043 30 7.34784 30 10H34C34 8.4087 34.6321 6.88258 35.7574 5.75736L32.9289 2.92893ZM30 10C30 12.6522 31.0536 15.1957 32.9289 17.0711L35.7574 14.2426C34.6321 13.1174 34 11.5913 34 10H30ZM32.9289 17.0711C33.8575 17.9997 34.9599 18.7362 36.1732 19.2388L37.7039 15.5433C36.9759 15.2418 36.3145 14.7998 35.7574 14.2426L32.9289 17.0711ZM36.1732 19.2388C37.3864 19.7413 38.6868 20 40 20V16C39.2121 16 38.4319 15.8448 37.7039 15.5433L36.1732 19.2388ZM40 20C42.6522 20 45.1957 18.9464 47.0711 17.0711L44.2426 14.2426C43.1174 15.3679 41.5913 16 40 16V20ZM47.0711 17.0711C48.9464 15.1957 50 12.6522 50 10H46C46 11.5913 45.3679 13.1174 44.2426 14.2426L47.0711 17.0711ZM50 10C50 4.46753 45.5007 0 40 0V4C43.2993 4 46 6.68447 46 10H50Z" fill="white" mask="url(#path-2-outside-1_1_14)"/>
</svg>
