<svg width="10" height="11" viewBox="0 0 10 11" fill="none" xmlns="http://www.w3.org/2000/svg">
<path d="M9.02645 1.38024C8.86568 1.21944 8.67481 1.09189 8.46475 1.00486C8.25468 0.917838 8.02953 0.873047 7.80215 0.873047C7.57477 0.873047 7.34962 0.917838 7.13955 1.00486C6.92948 1.09189 6.73861 1.21944 6.57785 1.38024L1.37812 6.57996C1.13117 6.82707 0.955067 7.13594 0.868192 7.47432L0.293527 9.71089C0.279277 9.76654 0.279787 9.82494 0.295008 9.88033C0.310229 9.93573 0.339634 9.98619 0.38032 10.0267C0.421006 10.0673 0.471565 10.0965 0.527006 10.1116C0.582447 10.1266 0.640852 10.1269 0.696453 10.1125L2.93236 9.53849C3.27081 9.45177 3.57971 9.27564 3.82672 9.02856L9.02645 3.82884C9.18724 3.66807 9.3148 3.4772 9.40182 3.26713C9.48884 3.05707 9.53364 2.83191 9.53364 2.60454C9.53364 2.37716 9.48884 2.152 9.40182 1.94194C9.3148 1.73187 9.18724 1.541 9.02645 1.38024ZM7.04485 1.84723C7.24569 1.64638 7.5181 1.53355 7.80215 1.53355C8.08619 1.53355 8.3586 1.64638 8.55945 1.84723C8.7603 2.04808 8.87313 2.32049 8.87313 2.60454C8.87313 2.88858 8.7603 3.16099 8.55945 3.36184L8.04489 3.87639L6.53029 2.36179L7.04485 1.84723ZM6.06329 2.82879L7.5779 4.34339L3.35973 8.56156C3.19616 8.72481 2.99177 8.84115 2.76789 8.89843L1.0723 9.33439L1.50825 7.6388C1.56511 7.41474 1.68151 7.21024 1.84512 7.04696L6.06329 2.82879Z" fill="black"/>
</svg>
