<svg width="21" height="22" viewBox="0 0 21 22" fill="none" xmlns="http://www.w3.org/2000/svg">
<g id="fluent:edit-16-regular">
<path id="Vector" d="M18.6856 2.61424C18.3661 2.29474 17.9869 2.04129 17.5695 1.86837C17.1521 1.69545 16.7047 1.60645 16.2529 1.60645C15.801 1.60645 15.3537 1.69545 14.9363 1.86837C14.5188 2.04129 14.1396 2.29474 13.8201 2.61424L3.48814 12.9462C2.99744 13.4373 2.64751 14.051 2.47489 14.7234L1.33301 19.1675C1.3047 19.2781 1.30571 19.3941 1.33596 19.5042C1.3662 19.6142 1.42463 19.7145 1.50547 19.7951C1.58632 19.8757 1.68678 19.9338 1.79694 19.9637C1.90711 19.9935 2.02316 19.9942 2.13364 19.9655L6.57645 18.8249C7.24895 18.6526 7.86275 18.3026 8.35358 17.8117L18.6856 7.47968C19.0051 7.16023 19.2585 6.78098 19.4315 6.36357C19.6044 5.94616 19.6934 5.49877 19.6934 5.04696C19.6934 4.59515 19.6044 4.14777 19.4315 3.73036C19.2585 3.31295 19.0051 2.93369 18.6856 2.61424ZM14.7481 3.54218C15.1472 3.14309 15.6885 2.91888 16.2529 2.91888C16.8173 2.91888 17.3585 3.14309 17.7576 3.54218C18.1567 3.94127 18.3809 4.48256 18.3809 5.04696C18.3809 5.61136 18.1567 6.15265 17.7576 6.55174L16.7352 7.57418L13.7256 4.56462L14.7481 3.54218ZM12.7977 5.49256L15.8073 8.50212L7.42564 16.8837C7.10063 17.2081 6.6945 17.4393 6.24964 17.5531L2.88045 18.4194L3.7467 15.0502C3.85968 14.605 4.09097 14.1986 4.41608 13.8742L12.7977 5.49256Z" fill="black"/>
</g>
</svg>
