<svg width="26" height="26" viewBox="0 0 26 26" fill="none" xmlns="http://www.w3.org/2000/svg">
<path fill-rule="evenodd" clip-rule="evenodd" d="M8.39803 17.1203C13.2124 21.9337 17.6737 22.4608 18.9834 22.5096C20.5661 22.5672 22.1813 21.2753 22.88 19.9521C21.7656 18.6451 20.3144 17.6311 18.7255 16.532C17.7877 17.4684 16.6319 19.2084 15.0931 18.585C14.2179 18.2332 12.0567 17.238 10.1685 15.349C8.27908 13.4612 7.2849 11.3004 6.93055 10.4266C6.30699 8.88561 8.05244 7.72764 8.99028 6.79C7.89092 5.1751 6.89424 3.68663 5.58953 2.62881C4.24726 3.32985 2.94756 4.93224 3.00641 6.53587C3.05525 7.84531 3.58239 12.3057 8.39803 17.1203ZM18.8908 25.0121C17.0877 24.9457 11.9778 24.2397 6.62628 18.8905C1.27599 13.54 0.571048 8.43244 0.503433 6.62851C0.403264 3.87942 2.50932 1.2092 4.94219 0.166404C5.23515 0.0399249 5.55598 -0.00822968 5.87317 0.0266659C6.19037 0.0615615 6.49305 0.178308 6.75149 0.36545C8.7649 1.83388 10.1535 4.05844 11.3468 5.80103C11.595 6.16338 11.7087 6.60109 11.6682 7.03842C11.6278 7.47575 11.4357 7.88517 11.1251 8.19583L9.42727 9.89461C9.82169 10.7647 10.6243 12.2644 11.939 13.5788C13.2537 14.8933 14.7538 15.6957 15.6252 16.0901L17.3219 14.3925C17.6338 14.0814 18.045 13.8896 18.4839 13.8505C18.9227 13.8114 19.3614 13.9274 19.7234 14.1785C21.5014 15.4103 23.59 16.7786 25.1125 18.7277C25.3149 18.988 25.4436 19.2978 25.4853 19.6249C25.5269 19.9519 25.4799 20.2841 25.3492 20.5867C24.3012 23.0316 21.6492 25.1135 18.8908 25.0121Z" fill="black"/>
</svg>
