<svg width="24" height="25" viewBox="0 0 24 25" fill="none" xmlns="http://www.w3.org/2000/svg">
<g id="ic:round-plus">
<path id="Vector" d="M18 13.7969H13V18.7969C13 19.0621 12.8946 19.3164 12.7071 19.504C12.5196 19.6915 12.2652 19.7969 12 19.7969C11.7348 19.7969 11.4804 19.6915 11.2929 19.504C11.1054 19.3164 11 19.0621 11 18.7969V13.7969H6C5.73478 13.7969 5.48043 13.6915 5.29289 13.504C5.10536 13.3164 5 13.0621 5 12.7969C5 12.5317 5.10536 12.2773 5.29289 12.0898C5.48043 11.9022 5.73478 11.7969 6 11.7969H11V6.79688C11 6.53166 11.1054 6.2773 11.2929 6.08977C11.4804 5.90223 11.7348 5.79687 12 5.79688C12.2652 5.79687 12.5196 5.90223 12.7071 6.08977C12.8946 6.2773 13 6.53166 13 6.79688V11.7969H18C18.2652 11.7969 18.5196 11.9022 18.7071 12.0898C18.8946 12.2773 19 12.5317 19 12.7969C19 13.0621 18.8946 13.3164 18.7071 13.504C18.5196 13.6915 18.2652 13.7969 18 13.7969Z" fill="black"/>
</g>
</svg>
